<svg width="301" height="300" viewBox="0 0 301 300" fill="none" xmlns="http://www.w3.org/2000/svg">
<path d="M300.005 116.9C300.005 117.3 300.005 117.6 300.005 118C300.305 87.1 288.305 56.8 265.805 34.3C243.505 12 213.705 0 183.105 0H116.805C86.3055 0 56.5055 12 34.2055 34.2C11.7055 56.7 -0.294509 87 0.00549107 117.9C0.00549107 117.5 0.00549107 117.2 0.00549107 116.8V183.1C0.00549107 182.7 0.00549107 182.4 0.00549107 182C-0.294509 212.9 11.7055 243.2 34.2055 265.7C56.7055 288.2 87.0055 300.2 117.905 299.9C117.505 299.9 117.205 299.9 116.805 299.9H183.105C182.705 299.9 182.405 299.9 182.005 299.9C212.905 300.2 243.206 288.2 265.706 265.7C288.206 243.2 300.205 212.9 299.905 182C299.905 182.4 299.905 182.7 299.905 183.1V116.9H300.005ZM296.505 145.1C296.805 143.9 297.105 142.7 297.305 141.5C297.105 142.7 296.805 143.9 296.505 145.1C296.205 146.3 296.005 147.5 295.905 148.8C296.105 147.5 296.205 146.3 296.505 145.1ZM300.005 119.6C300.005 120.3 300.005 120.9 299.905 121.6C299.905 120.9 299.905 120.3 300.005 119.6ZM299.805 123.3C299.805 124 299.706 124.6 299.706 125.3C299.706 124.6 299.805 123.9 299.805 123.3ZM299.605 126.9C299.505 127.5 299.505 128.2 299.405 128.8C299.405 128.2 299.505 127.6 299.605 126.9ZM299.206 130.6C299.106 131.2 299.005 131.8 299.005 132.4C299.005 131.8 299.106 131.2 299.206 130.6ZM298.706 134.3C298.606 134.9 298.505 135.5 298.405 136.1C298.505 135.5 298.606 134.9 298.706 134.3ZM298.105 137.9C298.005 138.5 297.906 139.2 297.706 139.8C297.806 139.2 298.005 138.5 298.105 137.9ZM76.9055 69.4C82.7055 56.4 90.7055 44.8 100.905 34.6C112.905 22.6 127.405 13.3 143.305 7.6C147.605 6 152.405 6 156.805 7.6C172.605 13.4 187.205 22.6 199.205 34.6C209.405 44.8 217.405 56.4 223.205 69.4C224.005 71.1 222.305 72.9 220.505 72.3C199.505 65.3 176.605 64.3 155.005 69.7C151.805 70.5 148.505 70.5 145.305 69.7C123.705 64.4 100.805 65.3 79.8055 72.3C77.8055 73 76.1055 71.2 76.9055 69.4ZM4.00549 148.8C3.90549 147.6 3.70549 146.3 3.40549 145.1C3.10549 143.9 2.80549 142.7 2.60549 141.5C2.90549 142.7 3.10549 143.9 3.40549 145.1C3.80549 146.3 3.90549 147.5 4.00549 148.8ZM0.105491 121.6C0.105491 120.9 0.00549107 120.3 0.00549107 119.6C0.105491 120.3 0.105491 120.9 0.105491 121.6ZM2.30549 139.8C2.20549 139.2 2.00549 138.5 1.90549 137.9C2.00549 138.5 2.20549 139.2 2.30549 139.8ZM1.60549 136C1.50549 135.4 1.40549 134.8 1.30549 134.2C1.40549 134.9 1.50549 135.5 1.60549 136ZM1.10549 132.4C1.00549 131.8 0.905491 131.2 0.905491 130.6C0.905491 131.2 1.00549 131.8 1.10549 132.4ZM0.605491 128.8C0.505491 128.2 0.505491 127.5 0.405491 126.9C0.505491 127.6 0.605491 128.2 0.605491 128.8ZM0.305491 125.2C0.305491 124.5 0.205491 123.9 0.205491 123.2C0.205491 123.9 0.305491 124.6 0.305491 125.2ZM3.50549 154.9C3.20549 156.1 2.90549 157.3 2.70549 158.5C2.90549 157.3 3.20549 156.1 3.50549 154.9C3.80549 153.7 4.00549 152.5 4.10549 151.2C3.90549 152.5 3.80549 153.7 3.50549 154.9ZM0.00549107 180.4C0.00549107 179.7 0.00549107 179.1 0.105491 178.4C0.105491 179.1 0.105491 179.7 0.00549107 180.4ZM0.205491 176.7C0.205491 176 0.305491 175.4 0.305491 174.7C0.305491 175.4 0.205491 176.1 0.205491 176.7ZM0.405491 173.1C0.505491 172.5 0.505491 171.8 0.605491 171.2C0.605491 171.8 0.505491 172.4 0.405491 173.1ZM0.805491 169.4C0.905491 168.8 1.00549 168.2 1.00549 167.6C1.00549 168.2 0.905491 168.8 0.805491 169.4ZM1.30549 165.7C1.40549 165.1 1.50549 164.5 1.60549 163.9C1.50549 164.6 1.40549 165.1 1.30549 165.7ZM1.90549 162.1C2.00549 161.5 2.10549 160.8 2.30549 160.2C2.20549 160.8 2.00549 161.5 1.90549 162.1ZM69.7055 145.1C70.5055 148.3 70.5055 151.6 69.7055 154.8C64.4055 176.4 65.3055 199.3 72.3055 220.3C72.9055 222.1 71.1055 223.8 69.4055 223C56.4055 217.2 44.8055 209.2 34.6055 199C22.6055 187 13.3055 172.5 7.60549 156.6C6.00549 152.3 6.00549 147.5 7.60549 143.1C13.4055 127.3 22.6055 112.7 34.6055 100.7C44.8055 90.5 56.4055 82.5 69.4055 76.7C71.1055 75.9 72.9055 77.6 72.3055 79.4C65.3055 100.7 64.4055 123.5 69.7055 145.1ZM145.105 296.5C143.905 296.8 142.705 297.1 141.505 297.3C142.705 297.1 143.905 296.8 145.105 296.5C146.305 296.2 147.505 296 148.805 295.9C147.505 296.1 146.305 296.2 145.105 296.5ZM119.605 300C120.305 300 120.905 300 121.605 299.9C120.905 299.9 120.305 299.9 119.605 300ZM123.305 299.8C124.005 299.8 124.605 299.7 125.305 299.7C124.605 299.7 123.905 299.8 123.305 299.8ZM126.905 299.6C127.505 299.5 128.205 299.5 128.805 299.4C128.205 299.4 127.605 299.5 126.905 299.6ZM130.605 299.2C131.205 299.1 131.805 299 132.405 299C131.805 299 131.205 299.1 130.605 299.2ZM134.305 298.7C134.905 298.6 135.505 298.5 136.105 298.4C135.505 298.5 134.905 298.6 134.305 298.7ZM137.905 298.1C138.505 298 139.205 297.9 139.805 297.7C139.205 297.8 138.505 298 137.905 298.1ZM151.205 296C152.405 296.1 153.705 296.3 154.905 296.6C156.105 296.9 157.305 297.2 158.505 297.4C157.305 297.1 156.105 296.9 154.905 296.6C153.705 296.2 152.505 296.1 151.205 296ZM178.405 299.9C179.105 299.9 179.705 300 180.405 300C179.705 299.9 179.105 299.9 178.405 299.9ZM160.205 297.7C160.805 297.8 161.505 298 162.105 298.1C161.505 298 160.805 297.8 160.205 297.7ZM164.005 298.4C164.605 298.5 165.205 298.6 165.805 298.7C165.105 298.6 164.505 298.5 164.005 298.4ZM167.605 298.9C168.205 299 168.805 299.1 169.405 299.1C168.805 299.1 168.205 299 167.605 298.9ZM171.205 299.4C171.805 299.5 172.505 299.5 173.105 299.6C172.405 299.5 171.805 299.4 171.205 299.4ZM174.805 299.7C175.505 299.7 176.105 299.8 176.805 299.8C176.105 299.8 175.405 299.7 174.805 299.7ZM223.105 230.6C217.305 243.6 209.305 255.2 199.105 265.4C187.105 277.4 172.605 286.7 156.705 292.4C152.405 294 147.605 294 143.205 292.4C127.405 286.6 112.805 277.4 100.805 265.4C90.6055 255.2 82.6055 243.5 76.8055 230.6C76.0055 228.9 77.7055 227.1 79.5055 227.7C100.505 234.8 123.405 235.7 145.005 230.3C148.205 229.5 151.505 229.5 154.705 230.3C176.305 235.7 199.205 234.7 220.205 227.7C222.205 227 223.905 228.8 223.105 230.6ZM226.205 156.7C220.405 172.5 211.205 187.1 199.205 199.1C187.205 211.1 172.705 220.4 156.805 226.1C152.505 227.7 147.705 227.7 143.305 226.1C127.505 220.3 112.905 211.1 100.905 199.1C88.9055 187.1 79.6055 172.6 73.9055 156.7C72.3055 152.4 72.3055 147.6 73.9055 143.2C79.7055 127.4 88.9055 112.8 100.905 100.8C112.905 88.8 127.405 79.5 143.305 73.8C147.605 72.2 152.405 72.2 156.805 73.8C172.605 79.6 187.205 88.8 199.205 100.8C211.205 112.8 220.505 127.3 226.205 143.2C227.705 147.6 227.705 152.4 226.205 156.7ZM292.405 156.7C286.605 172.5 277.405 187.1 265.405 199.1C255.205 209.3 243.605 217.3 230.605 223.1C228.905 223.9 227.105 222.2 227.705 220.4C234.705 199.4 235.705 176.5 230.305 154.9C229.505 151.7 229.505 148.4 230.305 145.2C235.605 123.6 234.705 100.7 227.705 79.7C227.105 77.9 228.905 76.2 230.605 77C243.605 82.8 255.205 90.8 265.405 101C277.405 113 286.705 127.5 292.405 143.4C294.005 147.6 294.005 152.4 292.405 156.7ZM296.005 151.2C296.105 152.4 296.305 153.7 296.605 154.9C296.905 156.1 297.205 157.3 297.405 158.5C297.105 157.3 296.905 156.1 296.605 154.9C296.205 153.7 296.105 152.5 296.005 151.2ZM299.905 178.4C299.905 179.1 300.005 179.7 300.005 180.4C299.905 179.7 299.905 179.1 299.905 178.4ZM297.706 160.2C297.806 160.8 298.005 161.5 298.105 162.1C298.005 161.5 297.806 160.8 297.706 160.2ZM298.405 164C298.505 164.6 298.606 165.2 298.706 165.8C298.606 165.1 298.505 164.6 298.405 164ZM298.905 167.6C299.005 168.2 299.105 168.8 299.105 169.4C299.105 168.8 299.005 168.2 298.905 167.6ZM299.405 171.2C299.505 171.8 299.505 172.5 299.605 173.1C299.505 172.4 299.405 171.8 299.405 171.2ZM299.706 174.8C299.706 175.5 299.805 176.1 299.805 176.8C299.805 176.1 299.706 175.4 299.706 174.8Z" fill="#D7FB02"/>
</svg>
