<svg width="800" height="400" viewBox="0 0 800 400" fill="none" xmlns="http://www.w3.org/2000/svg">
  <rect width="800" height="400" rx="8" fill="#F9FAFB"/>
  
  <!-- Header -->
  <rect width="800" height="60" rx="8" fill="#4F46E5"/>
  <text x="30" y="38" font-family="Arial" font-size="18" font-weight="bold" fill="white">The Richer Way</text>
  
  <!-- Sidebar -->
  <rect x="0" y="60" width="200" height="340" fill="#F3F4F6"/>
  <rect x="20" y="90" width="160" height="40" rx="4" fill="#E5E7EB"/>
  <text x="50" y="115" font-family="Arial" font-size="14" fill="#374151">Dashboard</text>
  
  <rect x="20" y="140" width="160" height="40" rx="4" fill="#4F46E5"/>
  <text x="50" y="165" font-family="Arial" font-size="14" fill="white">Jobs</text>
  
  <rect x="20" y="190" width="160" height="40" rx="4" fill="#E5E7EB"/>
  <text x="50" y="215" font-family="Arial" font-size="14" fill="#374151">Projects</text>
  
  <rect x="20" y="240" width="160" height="40" rx="4" fill="#E5E7EB"/>
  <text x="50" y="265" font-family="Arial" font-size="14" fill="#374151">Health</text>
  
  <rect x="20" y="290" width="160" height="40" rx="4" fill="#E5E7EB"/>
  <text x="50" y="315" font-family="Arial" font-size="14" fill="#374151">Settings</text>
  
  <!-- Main content -->
  <rect x="220" y="80" width="560" height="60" rx="4" fill="white" stroke="#E5E7EB" stroke-width="1"/>
  <text x="240" y="115" font-family="Arial" font-size="16" font-weight="bold" fill="#111827">Job Applications Overview</text>
  
  <!-- Charts and data -->
  <rect x="220" y="160" width="270" height="220" rx="4" fill="white" stroke="#E5E7EB" stroke-width="1"/>
  <text x="240" y="190" font-family="Arial" font-size="14" font-weight="bold" fill="#111827">Application Status</text>
  
  <!-- Simple pie chart -->
  <circle cx="355" cy="270" r="70" fill="#F3F4F6"/>
  <path d="M355 270 L355 200 A70 70 0 0 1 420 255 Z" fill="#4F46E5"/>
  <path d="M355 270 L420 255 A70 70 0 0 1 390 320 Z" fill="#10B981"/>
  <path d="M355 270 L390 320 A70 70 0 0 1 290 315 Z" fill="#F59E0B"/>
  <path d="M355 270 L290 315 A70 70 0 0 1 300 230 Z" fill="#EF4444"/>
  <path d="M355 270 L300 230 A70 70 0 0 1 355 200 Z" fill="#8B5CF6"/>
  
  <!-- Recent applications -->
  <rect x="510" y="160" width="270" height="220" rx="4" fill="white" stroke="#E5E7EB" stroke-width="1"/>
  <text x="530" y="190" font-family="Arial" font-size="14" font-weight="bold" fill="#111827">Recent Applications</text>
  
  <rect x="530" y="210" width="230" height="30" rx="4" fill="#F9FAFB"/>
  <text x="540" y="230" font-family="Arial" font-size="12" fill="#111827">Frontend Developer at TechCorp</text>
  
  <rect x="530" y="250" width="230" height="30" rx="4" fill="#F9FAFB"/>
  <text x="540" y="270" font-family="Arial" font-size="12" fill="#111827">UX Designer at DesignStudio</text>
  
  <rect x="530" y="290" width="230" height="30" rx="4" fill="#F9FAFB"/>
  <text x="540" y="310" font-family="Arial" font-size="12" fill="#111827">Product Manager at StartupInc</text>
  
  <rect x="530" y="330" width="230" height="30" rx="4" fill="#F9FAFB"/>
  <text x="540" y="350" font-family="Arial" font-size="12" fill="#111827">Full Stack Developer at WebCo</text>
</svg> 